<svg width="48" height="49" viewBox="0 0 48 49" fill="none" xmlns="http://www.w3.org/2000/svg">
<path d="M24 48.2363C37.2548 48.2363 48 37.4563 48 24.1584C48 10.8606 37.2548 0.0805664 24 0.0805664C10.7452 0.0805664 0 10.8606 0 24.1584C0 37.4563 10.7452 48.2363 24 48.2363Z" fill="#EAB14D"/>
<path d="M24.0002 0.0805664C23.5718 0.0805664 23.1461 0.0923232 22.7231 0.11452C35.3843 0.780612 45.4462 11.2904 45.4462 24.1584C45.4462 37.0265 35.3843 47.5363 22.7231 48.2024C23.1461 48.2246 23.5718 48.2363 24.0002 48.2363C37.2551 48.2363 48.0002 37.4563 48.0002 24.1584C48.0002 10.8606 37.2551 0.0805664 24.0002 0.0805664Z" fill="#E49542"/>
<path d="M23.9998 42.9211C34.3285 42.9211 42.7017 34.5208 42.7017 24.1585C42.7017 13.7962 34.3285 5.39587 23.9998 5.39587C13.671 5.39587 5.29785 13.7962 5.29785 24.1585C5.29785 34.5208 13.671 42.9211 23.9998 42.9211Z" fill="#F4FBFF"/>
<path d="M24.0004 5.39587C23.4824 5.39587 22.9697 5.41798 22.4624 5.45936C32.0717 6.24415 39.6264 14.3158 39.6264 24.1585C39.6264 34.0012 32.0717 42.0727 22.4624 42.8576C22.9697 42.8991 23.4824 42.9212 24.0004 42.9212C34.3292 42.9212 42.7023 34.5208 42.7023 24.1586C42.7023 13.7963 34.3292 5.39587 24.0004 5.39587Z" fill="#DAF1F4"/>
<path d="M24.0002 11.1705C23.6002 11.1705 23.2759 10.8452 23.2759 10.4439V9.3773C23.2759 8.97597 23.6002 8.65063 24.0002 8.65063C24.4002 8.65063 24.7246 8.97597 24.7246 9.3773V10.4439C24.7246 10.8452 24.4002 11.1705 24.0002 11.1705Z" fill="#2B4D66"/>
<path d="M33.6272 15.2039C33.4418 15.2039 33.2564 15.1329 33.115 14.9911C32.8321 14.7072 32.8321 14.2472 33.1151 13.9633L33.8668 13.2092C34.1497 12.9253 34.6083 12.9254 34.8913 13.2092C35.1741 13.4931 35.1741 13.9531 34.8912 14.2369L34.1394 14.9912C33.9979 15.1329 33.8126 15.2039 33.6272 15.2039Z" fill="#2B4D66"/>
<path d="M38.6546 24.885H37.5915C37.1914 24.885 36.8672 24.5597 36.8672 24.1583C36.8672 23.757 37.1915 23.4316 37.5915 23.4316H38.6546C39.0547 23.4316 39.3789 23.757 39.3789 24.1583C39.3789 24.5597 39.0546 24.885 38.6546 24.885Z" fill="#2B4D66"/>
<path d="M34.3227 35.2976C34.1374 35.2976 33.952 35.2266 33.8105 35.0848L33.0588 34.3306C32.776 34.0468 32.776 33.5868 33.0588 33.3028C33.3417 33.0192 33.8003 33.0192 34.0833 33.3028L34.835 34.057C35.1178 34.3408 35.1178 34.8008 34.835 35.0848C34.6935 35.2266 34.5081 35.2976 34.3227 35.2976Z" fill="#2B4D66"/>
<path d="M23.9216 39.5873C23.5215 39.5873 23.1973 39.2619 23.1973 38.8606V37.794C23.1973 37.3926 23.5215 37.0674 23.9216 37.0674C24.3216 37.0674 24.6459 37.3927 24.6459 37.794V38.8606C24.6459 39.2619 24.3216 39.5873 23.9216 39.5873Z" fill="#2B4D66"/>
<path d="M13.5427 35.2415C13.3573 35.2415 13.1719 35.1704 13.0305 35.0285C12.7476 34.7448 12.7477 34.2847 13.0305 34.0008L13.7823 33.2467C14.0652 32.963 14.5237 32.963 14.8067 33.2468C15.0895 33.5306 15.0895 33.9907 14.8066 34.2745L14.0548 35.0286C13.9134 35.1705 13.728 35.2415 13.5427 35.2415Z" fill="#2B4D66"/>
<path d="M10.3299 24.8062H9.26678C8.86676 24.8062 8.54248 24.4808 8.54248 24.0795C8.54248 23.6781 8.86676 23.3528 9.26678 23.3528H10.3299C10.7299 23.3528 11.0542 23.6781 11.0542 24.0795C11.0543 24.4808 10.7299 24.8062 10.3299 24.8062Z" fill="#2B4D66"/>
<path d="M14.3506 15.1479C14.1653 15.1479 13.9799 15.077 13.8385 14.9351L13.0867 14.181C12.8038 13.8971 12.8038 13.4371 13.0866 13.1533C13.3695 12.8695 13.8281 12.8694 14.111 13.1532L14.8628 13.9074C15.1456 14.1911 15.1457 14.6512 14.8629 14.9351C14.7213 15.0769 14.536 15.1479 14.3506 15.1479Z" fill="#2B4D66"/>
<path d="M23.9998 24.8853H17.8479C17.4478 24.8853 17.1235 24.5599 17.1235 24.1586C17.1235 23.7572 17.4478 23.4319 17.8479 23.4319H23.2754V14.1866C23.2754 13.7853 23.5996 13.46 23.9997 13.46C24.3997 13.46 24.724 13.7853 24.724 14.1866V24.1586C24.7241 24.5599 24.3998 24.8853 23.9998 24.8853Z" fill="#2B4D66"/>
<path d="M31.4311 28.7192C31.3195 28.7192 31.2065 28.6932 31.1004 28.6386L23.6686 24.8045C23.3129 24.621 23.1728 24.1829 23.3557 23.826C23.5386 23.469 23.9753 23.3284 24.3312 23.512L31.763 27.346C32.1187 27.5296 32.2589 27.9677 32.0759 28.3245C31.9474 28.5752 31.6939 28.7192 31.4311 28.7192Z" fill="#DA4A54"/>
<path d="M24.0002 26.098C25.0679 26.098 25.9335 25.2296 25.9335 24.1584C25.9335 23.0871 25.0679 22.2188 24.0002 22.2188C22.9325 22.2188 22.0669 23.0871 22.0669 24.1584C22.0669 25.2296 22.9325 26.098 24.0002 26.098Z" fill="#365E7D"/>
</svg>
